<svg xmlns="http://www.w3.org/2000/svg" width="128" height="128" viewBox="0 0 128 128" fill="none">
  <!-- Simple chibi cat - friendly, minimal, flat colors -->
  <defs>
    <linearGradient id="fur" x1="0" y1="0" x2="0" y2="1">
      <stop offset="0%" stop-color="#F6D8A8"/>
      <stop offset="100%" stop-color="#E9C38B"/>
    </linearGradient>
    <linearGradient id="ear" x1="0" y1="0" x2="0" y2="1">
      <stop offset="0%" stop-color="#FFC9CC"/>
      <stop offset="100%" stop-color="#FFADB3"/>
    </linearGradient>
  </defs>
  <!-- Head -->
  <g transform="translate(8,18)">
    <path d="M20 16 L36 2 L44 18 Q64 6 84 18 L92 2 L108 16 Q116 28 116 44 Q116 78 64 86 Q12 78 12 44 Q12 28 20 16Z" fill="url(#fur)" stroke="#A07B47" stroke-width="2"/>
    <!-- Ears inner -->
    <path d="M33 10 L38 6 L44 18 Q38 16 33 10Z" fill="url(#ear)"/>
    <path d="M92 10 L88 6 L84 18 Q89 16 92 10Z" fill="url(#ear)"/>
    <!-- Eyes -->
    <circle cx="44" cy="44" r="6" fill="#2F2F2F"/>
    <circle cx="84" cy="44" r="6" fill="#2F2F2F"/>
    <circle cx="42.5" cy="42.5" r="2" fill="#FFFFFF"/>
    <circle cx="82.5" cy="42.5" r="2" fill="#FFFFFF"/>
    <!-- Cheeks -->
    <ellipse cx="34" cy="56" rx="6" ry="4" fill="#FFB3BC" opacity="0.6"/>
    <ellipse cx="94" cy="56" rx="6" ry="4" fill="#FFB3BC" opacity="0.6"/>
    <!-- Nose -->
    <path d="M62 52 q4 4 8 0" fill="#F49AA2"/>
    <!-- Mouth -->
    <path d="M56 58 q8 10 16 0" fill="none" stroke="#7A5A39" stroke-width="2" stroke-linecap="round"/>
    <!-- Whiskers -->
    <path d="M28 50 l18 2" stroke="#7A5A39" stroke-width="2" stroke-linecap="round"/>
    <path d="M28 56 l18 -2" stroke="#7A5A39" stroke-width="2" stroke-linecap="round"/>
    <path d="M100 50 l-18 2" stroke="#7A5A39" stroke-width="2" stroke-linecap="round"/>
    <path d="M100 56 l-18 -2" stroke="#7A5A39" stroke-width="2" stroke-linecap="round"/>
  </g>
  <!-- Tiny body (chibi) -->
  <g transform="translate(24,88)">
    <ellipse cx="40" cy="16" rx="36" ry="16" fill="url(#fur)" stroke="#A07B47" stroke-width="2"/>
    <circle cx="16" cy="16" r="6" fill="#E9C38B"/>
    <circle cx="64" cy="16" r="6" fill="#E9C38B"/>
  </g>
</svg>


